<mxfile host="app.diagrams.net" modified="2023-10-17T14:53:24.804Z" agent="Mozilla/5.0 (Windows NT 10.0; Win64; x64) AppleWebKit/537.36 (KHTML, like Gecko) Chrome/118.0.0.0 Safari/537.36 Edg/118.0.2088.46" etag="fbgnmBkb3uhbRlS2_gQh" version="22.0.4" type="github">
  <diagram id="R2lEEEUBdFMjLlhIrx00" name="Page-1">
    <mxGraphModel dx="1042" dy="535" grid="1" gridSize="10" guides="1" tooltips="1" connect="1" arrows="1" fold="1" page="1" pageScale="1" pageWidth="850" pageHeight="1100" math="0" shadow="0" extFonts="Permanent Marker^https://fonts.googleapis.com/css?family=Permanent+Marker">
      <root>
        <mxCell id="0" />
        <mxCell id="1" parent="0" />
        <mxCell id="eYAqVJZ7Z7CQpS4yknWC-1" value="Visa Applicant&lt;br&gt;" style="html=1;whiteSpace=wrap;" parent="1" vertex="1">
          <mxGeometry x="260" y="160" width="110" height="50" as="geometry" />
        </mxCell>
        <mxCell id="eYAqVJZ7Z7CQpS4yknWC-2" value="Applicant processor" style="html=1;whiteSpace=wrap;" parent="1" vertex="1">
          <mxGeometry x="480" y="310" width="110" height="50" as="geometry" />
        </mxCell>
        <mxCell id="eYAqVJZ7Z7CQpS4yknWC-3" value="Branch Manager" style="html=1;whiteSpace=wrap;" parent="1" vertex="1">
          <mxGeometry x="630" y="140" width="110" height="50" as="geometry" />
        </mxCell>
        <mxCell id="eYAqVJZ7Z7CQpS4yknWC-4" value="System Administrator" style="html=1;whiteSpace=wrap;" parent="1" vertex="1">
          <mxGeometry x="660" y="30" width="110" height="50" as="geometry" />
        </mxCell>
        <mxCell id="eYAqVJZ7Z7CQpS4yknWC-5" value="Customer Support" style="html=1;whiteSpace=wrap;" parent="1" vertex="1">
          <mxGeometry x="40" y="20" width="110" height="50" as="geometry" />
        </mxCell>
        <mxCell id="eYAqVJZ7Z7CQpS4yknWC-6" value="Account" style="html=1;whiteSpace=wrap;" parent="1" vertex="1">
          <mxGeometry x="350" y="20" width="110" height="50" as="geometry" />
        </mxCell>
        <mxCell id="eYAqVJZ7Z7CQpS4yknWC-7" value="" style="endArrow=block;endFill=1;html=1;edgeStyle=orthogonalEdgeStyle;align=left;verticalAlign=top;rounded=0;entryX=0.5;entryY=1;entryDx=0;entryDy=0;exitX=0.5;exitY=0;exitDx=0;exitDy=0;" parent="1" source="eYAqVJZ7Z7CQpS4yknWC-1" target="eYAqVJZ7Z7CQpS4yknWC-6" edge="1">
          <mxGeometry x="-0.6" relative="1" as="geometry">
            <mxPoint x="350" y="160" as="sourcePoint" />
            <mxPoint x="510" y="270" as="targetPoint" />
            <Array as="points">
              <mxPoint x="405" y="150" />
            </Array>
            <mxPoint as="offset" />
          </mxGeometry>
        </mxCell>
        <mxCell id="eYAqVJZ7Z7CQpS4yknWC-8" value="1" style="edgeLabel;resizable=0;html=1;align=left;verticalAlign=bottom;" parent="eYAqVJZ7Z7CQpS4yknWC-7" connectable="0" vertex="1">
          <mxGeometry x="-1" relative="1" as="geometry" />
        </mxCell>
        <mxCell id="eYAqVJZ7Z7CQpS4yknWC-9" value="name" style="endArrow=block;endFill=1;html=1;edgeStyle=orthogonalEdgeStyle;align=left;verticalAlign=top;rounded=0;exitX=0.445;exitY=-0.06;exitDx=0;exitDy=0;entryX=0.75;entryY=1;entryDx=0;entryDy=0;exitPerimeter=0;" parent="1" source="eYAqVJZ7Z7CQpS4yknWC-2" target="eYAqVJZ7Z7CQpS4yknWC-6" edge="1">
          <mxGeometry x="-1" relative="1" as="geometry">
            <mxPoint x="350" y="270" as="sourcePoint" />
            <mxPoint x="510" y="270" as="targetPoint" />
            <Array as="points">
              <mxPoint x="529" y="190" />
              <mxPoint x="433" y="190" />
            </Array>
          </mxGeometry>
        </mxCell>
        <mxCell id="eYAqVJZ7Z7CQpS4yknWC-10" value="1" style="edgeLabel;resizable=0;html=1;align=left;verticalAlign=bottom;" parent="eYAqVJZ7Z7CQpS4yknWC-9" connectable="0" vertex="1">
          <mxGeometry x="-1" relative="1" as="geometry" />
        </mxCell>
        <mxCell id="eYAqVJZ7Z7CQpS4yknWC-11" value="name" style="endArrow=block;endFill=1;html=1;edgeStyle=orthogonalEdgeStyle;align=left;verticalAlign=top;rounded=0;exitX=0;exitY=0.5;exitDx=0;exitDy=0;entryX=1;entryY=0.25;entryDx=0;entryDy=0;" parent="1" source="eYAqVJZ7Z7CQpS4yknWC-4" target="eYAqVJZ7Z7CQpS4yknWC-6" edge="1">
          <mxGeometry x="-0.7551" y="-15" relative="1" as="geometry">
            <mxPoint x="630" y="330" as="sourcePoint" />
            <mxPoint x="443" y="100" as="targetPoint" />
            <Array as="points">
              <mxPoint x="590" y="55" />
              <mxPoint x="590" y="30" />
              <mxPoint x="470" y="30" />
              <mxPoint x="470" y="33" />
            </Array>
            <mxPoint as="offset" />
          </mxGeometry>
        </mxCell>
        <mxCell id="eYAqVJZ7Z7CQpS4yknWC-12" value="1" style="edgeLabel;resizable=0;html=1;align=left;verticalAlign=bottom;" parent="eYAqVJZ7Z7CQpS4yknWC-11" connectable="0" vertex="1">
          <mxGeometry x="-1" relative="1" as="geometry" />
        </mxCell>
        <mxCell id="eYAqVJZ7Z7CQpS4yknWC-13" value="name" style="endArrow=block;endFill=1;html=1;edgeStyle=orthogonalEdgeStyle;align=left;verticalAlign=top;rounded=0;exitX=0;exitY=0.5;exitDx=0;exitDy=0;entryX=1;entryY=0.75;entryDx=0;entryDy=0;" parent="1" source="eYAqVJZ7Z7CQpS4yknWC-3" target="eYAqVJZ7Z7CQpS4yknWC-6" edge="1">
          <mxGeometry x="-1" relative="1" as="geometry">
            <mxPoint x="350" y="270" as="sourcePoint" />
            <mxPoint x="510" y="270" as="targetPoint" />
          </mxGeometry>
        </mxCell>
        <mxCell id="eYAqVJZ7Z7CQpS4yknWC-14" value="1" style="edgeLabel;resizable=0;html=1;align=left;verticalAlign=bottom;" parent="eYAqVJZ7Z7CQpS4yknWC-13" connectable="0" vertex="1">
          <mxGeometry x="-1" relative="1" as="geometry" />
        </mxCell>
        <mxCell id="eYAqVJZ7Z7CQpS4yknWC-15" value="name" style="endArrow=block;endFill=1;html=1;edgeStyle=orthogonalEdgeStyle;align=left;verticalAlign=top;rounded=0;exitX=1;exitY=0.5;exitDx=0;exitDy=0;entryX=0;entryY=0.5;entryDx=0;entryDy=0;" parent="1" source="eYAqVJZ7Z7CQpS4yknWC-5" target="eYAqVJZ7Z7CQpS4yknWC-6" edge="1">
          <mxGeometry x="-1" relative="1" as="geometry">
            <mxPoint x="350" y="270" as="sourcePoint" />
            <mxPoint x="510" y="270" as="targetPoint" />
          </mxGeometry>
        </mxCell>
        <mxCell id="eYAqVJZ7Z7CQpS4yknWC-16" value="1" style="edgeLabel;resizable=0;html=1;align=left;verticalAlign=bottom;" parent="eYAqVJZ7Z7CQpS4yknWC-15" connectable="0" vertex="1">
          <mxGeometry x="-1" relative="1" as="geometry" />
        </mxCell>
        <mxCell id="eYAqVJZ7Z7CQpS4yknWC-20" value="Visa application" style="html=1;whiteSpace=wrap;" parent="1" vertex="1">
          <mxGeometry x="260" y="310" width="110" height="50" as="geometry" />
        </mxCell>
        <mxCell id="eYAqVJZ7Z7CQpS4yknWC-21" value="name" style="endArrow=block;endFill=1;html=1;edgeStyle=orthogonalEdgeStyle;align=left;verticalAlign=top;rounded=0;exitX=0.5;exitY=1;exitDx=0;exitDy=0;entryX=0.5;entryY=0;entryDx=0;entryDy=0;" parent="1" source="eYAqVJZ7Z7CQpS4yknWC-1" target="eYAqVJZ7Z7CQpS4yknWC-20" edge="1">
          <mxGeometry x="-1" relative="1" as="geometry">
            <mxPoint x="350" y="270" as="sourcePoint" />
            <mxPoint x="510" y="270" as="targetPoint" />
          </mxGeometry>
        </mxCell>
        <mxCell id="eYAqVJZ7Z7CQpS4yknWC-22" value="1" style="edgeLabel;resizable=0;html=1;align=left;verticalAlign=bottom;" parent="eYAqVJZ7Z7CQpS4yknWC-21" connectable="0" vertex="1">
          <mxGeometry x="-1" relative="1" as="geometry" />
        </mxCell>
        <mxCell id="eYAqVJZ7Z7CQpS4yknWC-23" value="name" style="endArrow=block;endFill=1;html=1;edgeStyle=orthogonalEdgeStyle;align=left;verticalAlign=top;rounded=0;exitX=0;exitY=0.5;exitDx=0;exitDy=0;entryX=1;entryY=0.5;entryDx=0;entryDy=0;" parent="1" source="eYAqVJZ7Z7CQpS4yknWC-2" target="eYAqVJZ7Z7CQpS4yknWC-20" edge="1">
          <mxGeometry x="-1" relative="1" as="geometry">
            <mxPoint x="350" y="270" as="sourcePoint" />
            <mxPoint x="510" y="270" as="targetPoint" />
          </mxGeometry>
        </mxCell>
        <mxCell id="eYAqVJZ7Z7CQpS4yknWC-24" value="1" style="edgeLabel;resizable=0;html=1;align=left;verticalAlign=bottom;" parent="eYAqVJZ7Z7CQpS4yknWC-23" connectable="0" vertex="1">
          <mxGeometry x="-1" relative="1" as="geometry">
            <mxPoint x="-10" as="offset" />
          </mxGeometry>
        </mxCell>
        <mxCell id="eYAqVJZ7Z7CQpS4yknWC-25" value="Country" style="html=1;whiteSpace=wrap;" parent="1" vertex="1">
          <mxGeometry x="40" y="310" width="110" height="50" as="geometry" />
        </mxCell>
        <mxCell id="eYAqVJZ7Z7CQpS4yknWC-26" value="name" style="endArrow=block;endFill=1;html=1;edgeStyle=orthogonalEdgeStyle;align=left;verticalAlign=top;rounded=0;exitX=0;exitY=0.5;exitDx=0;exitDy=0;entryX=1;entryY=0.5;entryDx=0;entryDy=0;" parent="1" source="eYAqVJZ7Z7CQpS4yknWC-20" target="eYAqVJZ7Z7CQpS4yknWC-25" edge="1">
          <mxGeometry x="-1" relative="1" as="geometry">
            <mxPoint x="325" y="210" as="sourcePoint" />
            <mxPoint x="325" y="330" as="targetPoint" />
          </mxGeometry>
        </mxCell>
        <mxCell id="eYAqVJZ7Z7CQpS4yknWC-27" value="1" style="edgeLabel;resizable=0;html=1;align=left;verticalAlign=bottom;" parent="eYAqVJZ7Z7CQpS4yknWC-26" connectable="0" vertex="1">
          <mxGeometry x="-1" relative="1" as="geometry" />
        </mxCell>
        <mxCell id="eYAqVJZ7Z7CQpS4yknWC-28" value="Customer query" style="html=1;whiteSpace=wrap;" parent="1" vertex="1">
          <mxGeometry x="40" y="150" width="110" height="50" as="geometry" />
        </mxCell>
        <mxCell id="eYAqVJZ7Z7CQpS4yknWC-29" value="Relation" style="endArrow=open;html=1;endSize=12;startArrow=diamondThin;startSize=14;startFill=0;edgeStyle=orthogonalEdgeStyle;rounded=0;exitX=0;exitY=0.5;exitDx=0;exitDy=0;entryX=1;entryY=0.5;entryDx=0;entryDy=0;" parent="1" source="eYAqVJZ7Z7CQpS4yknWC-1" target="eYAqVJZ7Z7CQpS4yknWC-28" edge="1">
          <mxGeometry relative="1" as="geometry">
            <mxPoint x="350" y="270" as="sourcePoint" />
            <mxPoint x="510" y="270" as="targetPoint" />
          </mxGeometry>
        </mxCell>
        <mxCell id="eYAqVJZ7Z7CQpS4yknWC-30" value="0..n" style="edgeLabel;resizable=0;html=1;align=left;verticalAlign=top;" parent="eYAqVJZ7Z7CQpS4yknWC-29" connectable="0" vertex="1">
          <mxGeometry x="-1" relative="1" as="geometry" />
        </mxCell>
        <mxCell id="eYAqVJZ7Z7CQpS4yknWC-31" value="1" style="edgeLabel;resizable=0;html=1;align=right;verticalAlign=top;" parent="eYAqVJZ7Z7CQpS4yknWC-29" connectable="0" vertex="1">
          <mxGeometry x="1" relative="1" as="geometry" />
        </mxCell>
        <mxCell id="eYAqVJZ7Z7CQpS4yknWC-32" value="Relation" style="endArrow=open;html=1;endSize=12;startArrow=diamondThin;startSize=14;startFill=0;edgeStyle=orthogonalEdgeStyle;rounded=0;exitX=0.5;exitY=1;exitDx=0;exitDy=0;entryX=0.5;entryY=0;entryDx=0;entryDy=0;" parent="1" source="eYAqVJZ7Z7CQpS4yknWC-5" target="eYAqVJZ7Z7CQpS4yknWC-28" edge="1">
          <mxGeometry relative="1" as="geometry">
            <mxPoint x="350" y="270" as="sourcePoint" />
            <mxPoint x="510" y="270" as="targetPoint" />
          </mxGeometry>
        </mxCell>
        <mxCell id="eYAqVJZ7Z7CQpS4yknWC-33" value="0..n" style="edgeLabel;resizable=0;html=1;align=left;verticalAlign=top;" parent="eYAqVJZ7Z7CQpS4yknWC-32" connectable="0" vertex="1">
          <mxGeometry x="-1" relative="1" as="geometry" />
        </mxCell>
        <mxCell id="eYAqVJZ7Z7CQpS4yknWC-34" value="1" style="edgeLabel;resizable=0;html=1;align=right;verticalAlign=top;" parent="eYAqVJZ7Z7CQpS4yknWC-32" connectable="0" vertex="1">
          <mxGeometry x="1" relative="1" as="geometry" />
        </mxCell>
        <mxCell id="eYAqVJZ7Z7CQpS4yknWC-35" value="Application status" style="html=1;whiteSpace=wrap;" parent="1" vertex="1">
          <mxGeometry x="260" y="420" width="110" height="50" as="geometry" />
        </mxCell>
        <mxCell id="eYAqVJZ7Z7CQpS4yknWC-36" value="name" style="endArrow=block;endFill=1;html=1;edgeStyle=orthogonalEdgeStyle;align=left;verticalAlign=top;rounded=0;exitX=0.5;exitY=1;exitDx=0;exitDy=0;entryX=0.5;entryY=0;entryDx=0;entryDy=0;" parent="1" source="eYAqVJZ7Z7CQpS4yknWC-20" target="eYAqVJZ7Z7CQpS4yknWC-35" edge="1">
          <mxGeometry x="-1" relative="1" as="geometry">
            <mxPoint x="350" y="270" as="sourcePoint" />
            <mxPoint x="510" y="270" as="targetPoint" />
          </mxGeometry>
        </mxCell>
        <mxCell id="eYAqVJZ7Z7CQpS4yknWC-37" value="1" style="edgeLabel;resizable=0;html=1;align=left;verticalAlign=bottom;" parent="eYAqVJZ7Z7CQpS4yknWC-36" connectable="0" vertex="1">
          <mxGeometry x="-1" relative="1" as="geometry" />
        </mxCell>
        <mxCell id="eYAqVJZ7Z7CQpS4yknWC-38" value="name" style="endArrow=block;endFill=1;html=1;edgeStyle=orthogonalEdgeStyle;align=left;verticalAlign=top;rounded=0;exitX=0.5;exitY=1;exitDx=0;exitDy=0;entryX=1;entryY=0.5;entryDx=0;entryDy=0;" parent="1" source="eYAqVJZ7Z7CQpS4yknWC-2" target="eYAqVJZ7Z7CQpS4yknWC-35" edge="1">
          <mxGeometry x="-1" relative="1" as="geometry">
            <mxPoint x="325" y="370" as="sourcePoint" />
            <mxPoint x="325" y="430" as="targetPoint" />
          </mxGeometry>
        </mxCell>
        <mxCell id="eYAqVJZ7Z7CQpS4yknWC-39" value="1" style="edgeLabel;resizable=0;html=1;align=left;verticalAlign=bottom;" parent="eYAqVJZ7Z7CQpS4yknWC-38" connectable="0" vertex="1">
          <mxGeometry x="-1" relative="1" as="geometry" />
        </mxCell>
        <mxCell id="eYAqVJZ7Z7CQpS4yknWC-40" value="Applicant data" style="html=1;whiteSpace=wrap;" parent="1" vertex="1">
          <mxGeometry x="630" y="310" width="110" height="50" as="geometry" />
        </mxCell>
        <mxCell id="eYAqVJZ7Z7CQpS4yknWC-41" value="name" style="endArrow=block;endFill=1;html=1;edgeStyle=orthogonalEdgeStyle;align=left;verticalAlign=top;rounded=0;exitX=0.5;exitY=1;exitDx=0;exitDy=0;entryX=0.5;entryY=0;entryDx=0;entryDy=0;" parent="1" source="eYAqVJZ7Z7CQpS4yknWC-3" target="eYAqVJZ7Z7CQpS4yknWC-40" edge="1">
          <mxGeometry x="-1" relative="1" as="geometry">
            <mxPoint x="325" y="370" as="sourcePoint" />
            <mxPoint x="325" y="430" as="targetPoint" />
          </mxGeometry>
        </mxCell>
        <mxCell id="eYAqVJZ7Z7CQpS4yknWC-42" value="1" style="edgeLabel;resizable=0;html=1;align=left;verticalAlign=bottom;" parent="eYAqVJZ7Z7CQpS4yknWC-41" connectable="0" vertex="1">
          <mxGeometry x="-1" relative="1" as="geometry" />
        </mxCell>
        <object placeholders="1" c4Name="Person name" c4Type="Person" c4Description="Description of person." label="&lt;font style=&quot;font-size: 16px&quot;&gt;&lt;b&gt;%c4Name%&lt;/b&gt;&lt;/font&gt;&lt;div&gt;[%c4Type%]&lt;/div&gt;&lt;br&gt;&lt;div&gt;&lt;font style=&quot;font-size: 11px&quot;&gt;&lt;font color=&quot;#cccccc&quot;&gt;%c4Description%&lt;/font&gt;&lt;/div&gt;" id="wQsR2YJx9GZQ3n0-uCY--1">
          <mxCell style="html=1;fontSize=11;dashed=0;whiteSpace=wrap;fillColor=#083F75;strokeColor=#06315C;fontColor=#ffffff;shape=mxgraph.c4.person2;align=center;metaEdit=1;points=[[0.5,0,0],[1,0.5,0],[1,0.75,0],[0.75,1,0],[0.5,1,0],[0.25,1,0],[0,0.75,0],[0,0.5,0]];resizable=0;" vertex="1" parent="1">
            <mxGeometry x="260" y="600" width="200" height="180" as="geometry" />
          </mxCell>
        </object>
      </root>
    </mxGraphModel>
  </diagram>
</mxfile>
